<mxfile host="Electron" modified="2023-12-20T12:17:47.413Z" agent="Mozilla/5.0 (Windows NT 10.0; Win64; x64) AppleWebKit/537.36 (KHTML, like Gecko) draw.io/22.1.11 Chrome/114.0.5735.289 Electron/25.9.8 Safari/537.36" etag="FeAiJQcOasFLB9bTHwHi" version="22.1.11" type="device">
  <diagram id="HG5WKPCzB3062lQp25CD" name="Page-1">
    <mxGraphModel dx="650" dy="1520" grid="1" gridSize="10" guides="1" tooltips="1" connect="1" arrows="1" fold="1" page="1" pageScale="1" pageWidth="850" pageHeight="1100" math="0" shadow="0">
      <root>
        <mxCell id="0" />
        <mxCell id="1" parent="0" />
        <mxCell id="UfLgme9Dmy6jaAX3rJPS-1" value="Connect" style="html=1;verticalAlign=bottom;endArrow=block;curved=0;rounded=0;entryX=0.5;entryY=0;entryDx=0;entryDy=0;" parent="1" target="UfLgme9Dmy6jaAX3rJPS-2" edge="1">
          <mxGeometry width="80" relative="1" as="geometry">
            <mxPoint x="55" y="-1000" as="sourcePoint" />
            <mxPoint y="-900" as="targetPoint" />
          </mxGeometry>
        </mxCell>
        <mxCell id="UfLgme9Dmy6jaAX3rJPS-2" value="Create User Session" style="html=1;whiteSpace=wrap;" parent="1" vertex="1">
          <mxGeometry y="-920" width="110" height="50" as="geometry" />
        </mxCell>
        <mxCell id="UfLgme9Dmy6jaAX3rJPS-3" value="Session" style="swimlane;childLayout=stackLayout;horizontal=1;startSize=26;fillColor=none;horizontalStack=0;resizeParent=1;resizeParentMax=0;resizeLast=0;collapsible=1;marginBottom=0;whiteSpace=wrap;html=1;direction=east;" parent="1" vertex="1">
          <mxGeometry x="390" y="-1080" width="140" height="130" as="geometry">
            <mxRectangle x="390" y="-1080" width="90" height="30" as="alternateBounds" />
          </mxGeometry>
        </mxCell>
        <mxCell id="UfLgme9Dmy6jaAX3rJPS-4" value="+ connSock: int" style="text;strokeColor=none;fillColor=none;align=left;verticalAlign=top;spacingLeft=4;spacingRight=4;overflow=hidden;rotatable=0;points=[[0,0.5],[1,0.5]];portConstraint=eastwest;whiteSpace=wrap;html=1;" parent="UfLgme9Dmy6jaAX3rJPS-3" vertex="1">
          <mxGeometry y="26" width="140" height="26" as="geometry" />
        </mxCell>
        <mxCell id="UfLgme9Dmy6jaAX3rJPS-5" value="+ username: char[30]" style="text;strokeColor=none;fillColor=none;align=left;verticalAlign=top;spacingLeft=4;spacingRight=4;overflow=hidden;rotatable=0;points=[[0,0.5],[1,0.5]];portConstraint=eastwest;whiteSpace=wrap;html=1;" parent="UfLgme9Dmy6jaAX3rJPS-3" vertex="1">
          <mxGeometry y="52" width="140" height="26" as="geometry" />
        </mxCell>
        <mxCell id="UfLgme9Dmy6jaAX3rJPS-6" value="+ inRoom: int" style="text;strokeColor=none;fillColor=none;align=left;verticalAlign=top;spacingLeft=4;spacingRight=4;overflow=hidden;rotatable=0;points=[[0,0.5],[1,0.5]];portConstraint=eastwest;whiteSpace=wrap;html=1;" parent="UfLgme9Dmy6jaAX3rJPS-3" vertex="1">
          <mxGeometry y="78" width="140" height="26" as="geometry" />
        </mxCell>
        <mxCell id="UfLgme9Dmy6jaAX3rJPS-15" value="+ isLoggedIn: int" style="text;strokeColor=none;fillColor=none;align=left;verticalAlign=top;spacingLeft=4;spacingRight=4;overflow=hidden;rotatable=0;points=[[0,0.5],[1,0.5]];portConstraint=eastwest;whiteSpace=wrap;html=1;" parent="UfLgme9Dmy6jaAX3rJPS-3" vertex="1">
          <mxGeometry y="104" width="140" height="26" as="geometry" />
        </mxCell>
        <mxCell id="UfLgme9Dmy6jaAX3rJPS-17" value="Add new to" style="html=1;verticalAlign=bottom;endArrow=block;curved=0;rounded=0;exitX=1;exitY=0.5;exitDx=0;exitDy=0;entryX=0;entryY=0.5;entryDx=0;entryDy=0;" parent="1" source="UfLgme9Dmy6jaAX3rJPS-2" target="UfLgme9Dmy6jaAX3rJPS-19" edge="1">
          <mxGeometry x="0.0029" width="80" relative="1" as="geometry">
            <mxPoint x="90" y="-950" as="sourcePoint" />
            <mxPoint x="170" y="-950" as="targetPoint" />
            <mxPoint as="offset" />
          </mxGeometry>
        </mxCell>
        <mxCell id="UfLgme9Dmy6jaAX3rJPS-19" value="«Array»&lt;br&gt;Session[FD_SETSIZE]" style="html=1;whiteSpace=wrap;" parent="1" vertex="1">
          <mxGeometry x="215" y="-920" width="150" height="50" as="geometry" />
        </mxCell>
        <mxCell id="UfLgme9Dmy6jaAX3rJPS-21" value="create Room" style="html=1;verticalAlign=bottom;endArrow=block;curved=0;rounded=0;" parent="1" target="UfLgme9Dmy6jaAX3rJPS-22" edge="1">
          <mxGeometry width="80" relative="1" as="geometry">
            <mxPoint x="90" y="-620" as="sourcePoint" />
            <mxPoint x="90.00000000000004" y="-544.35" as="targetPoint" />
          </mxGeometry>
        </mxCell>
        <mxCell id="UfLgme9Dmy6jaAX3rJPS-22" value="Create new Room" style="html=1;whiteSpace=wrap;" parent="1" vertex="1">
          <mxGeometry x="30" y="-540" width="110" height="50" as="geometry" />
        </mxCell>
        <mxCell id="UfLgme9Dmy6jaAX3rJPS-23" value="Add new to" style="html=1;verticalAlign=bottom;endArrow=block;curved=0;rounded=0;exitX=1;exitY=0.5;exitDx=0;exitDy=0;entryX=0;entryY=0.5;entryDx=0;entryDy=0;" parent="1" target="UfLgme9Dmy6jaAX3rJPS-24" edge="1">
          <mxGeometry x="0.0029" width="80" relative="1" as="geometry">
            <mxPoint x="140.05" y="-515" as="sourcePoint" />
            <mxPoint x="200.05" y="-570" as="targetPoint" />
            <mxPoint as="offset" />
          </mxGeometry>
        </mxCell>
        <mxCell id="UfLgme9Dmy6jaAX3rJPS-24" value="«Array»&lt;br&gt;Room[30]" style="html=1;whiteSpace=wrap;" parent="1" vertex="1">
          <mxGeometry x="205" y="-650" width="150" height="50" as="geometry" />
        </mxCell>
        <mxCell id="UfLgme9Dmy6jaAX3rJPS-25" value="Room" style="swimlane;childLayout=stackLayout;horizontal=1;startSize=26;fillColor=none;horizontalStack=0;resizeParent=1;resizeParentMax=0;resizeLast=0;collapsible=1;marginBottom=0;whiteSpace=wrap;html=1;direction=east;" parent="1" vertex="1">
          <mxGeometry x="590" y="-1080" width="200" height="196" as="geometry">
            <mxRectangle x="590" y="-1080" width="90" height="30" as="alternateBounds" />
          </mxGeometry>
        </mxCell>
        <mxCell id="UfLgme9Dmy6jaAX3rJPS-26" value="+ roomName: int" style="text;strokeColor=none;fillColor=none;align=left;verticalAlign=top;spacingLeft=4;spacingRight=4;overflow=hidden;rotatable=0;points=[[0,0.5],[1,0.5]];portConstraint=eastwest;whiteSpace=wrap;html=1;" parent="UfLgme9Dmy6jaAX3rJPS-25" vertex="1">
          <mxGeometry y="26" width="200" height="26" as="geometry" />
        </mxCell>
        <mxCell id="HZqt73X-XAgS6acavSGB-45" value="+ itemQueue: queue" style="text;strokeColor=none;fillColor=none;align=left;verticalAlign=middle;spacingLeft=4;spacingRight=4;overflow=hidden;points=[[0,0.5],[1,0.5]];portConstraint=eastwest;rotatable=0;whiteSpace=wrap;html=1;" parent="UfLgme9Dmy6jaAX3rJPS-25" vertex="1">
          <mxGeometry y="52" width="200" height="30" as="geometry" />
        </mxCell>
        <mxCell id="UfLgme9Dmy6jaAX3rJPS-29" value="+ userNum: int (default = -1 if not active)" style="text;strokeColor=none;fillColor=none;align=left;verticalAlign=top;spacingLeft=4;spacingRight=4;overflow=hidden;rotatable=0;points=[[0,0.5],[1,0.5]];portConstraint=eastwest;whiteSpace=wrap;html=1;" parent="UfLgme9Dmy6jaAX3rJPS-25" vertex="1">
          <mxGeometry y="82" width="200" height="46" as="geometry" />
        </mxCell>
        <mxCell id="HZqt73X-XAgS6acavSGB-59" value="+ userList: int[30] (index của session của user trong phòng)" style="text;strokeColor=none;fillColor=none;align=left;verticalAlign=middle;spacingLeft=4;spacingRight=4;overflow=hidden;points=[[0,0.5],[1,0.5]];portConstraint=eastwest;rotatable=0;whiteSpace=wrap;html=1;" parent="UfLgme9Dmy6jaAX3rJPS-25" vertex="1">
          <mxGeometry y="128" width="200" height="42" as="geometry" />
        </mxCell>
        <mxCell id="Jd-QR08-7f3cu7Jl3zp6-1" value="+ timeCounter: pthread_t" style="text;strokeColor=none;fillColor=none;align=left;verticalAlign=top;spacingLeft=4;spacingRight=4;overflow=hidden;rotatable=0;points=[[0,0.5],[1,0.5]];portConstraint=eastwest;whiteSpace=wrap;html=1;" parent="UfLgme9Dmy6jaAX3rJPS-25" vertex="1">
          <mxGeometry y="170" width="200" height="26" as="geometry" />
        </mxCell>
        <mxCell id="UfLgme9Dmy6jaAX3rJPS-31" value="Tìm kiếm vị trí trống và thêm ( gán connSock , default = -1)" style="text;strokeColor=none;fillColor=none;spacingLeft=4;spacingRight=4;overflow=hidden;rotatable=0;points=[[0,0.5],[1,0.5]];portConstraint=eastwest;fontSize=12;whiteSpace=wrap;html=1;" parent="1" vertex="1">
          <mxGeometry x="365" y="-920" width="175" height="50" as="geometry" />
        </mxCell>
        <mxCell id="UfLgme9Dmy6jaAX3rJPS-32" value="Tìm kiếm vị trí trống và thêm&amp;nbsp;" style="text;strokeColor=none;fillColor=none;spacingLeft=4;spacingRight=4;overflow=hidden;rotatable=0;points=[[0,0.5],[1,0.5]];portConstraint=eastwest;fontSize=12;whiteSpace=wrap;html=1;" parent="1" vertex="1">
          <mxGeometry x="277.5" y="-600" width="115" height="50" as="geometry" />
        </mxCell>
        <mxCell id="UfLgme9Dmy6jaAX3rJPS-34" value="&lt;b&gt;Item&lt;/b&gt;" style="swimlane;fontStyle=0;childLayout=stackLayout;horizontal=1;startSize=26;fillColor=none;horizontalStack=0;resizeParent=1;resizeParentMax=0;resizeLast=0;collapsible=1;marginBottom=0;whiteSpace=wrap;html=1;" parent="1" vertex="1">
          <mxGeometry x="590" y="-870" width="190" height="226" as="geometry">
            <mxRectangle x="590" y="-870" width="70" height="30" as="alternateBounds" />
          </mxGeometry>
        </mxCell>
        <mxCell id="UfLgme9Dmy6jaAX3rJPS-35" value="+ itemName: char[30] (unique)" style="text;strokeColor=none;fillColor=none;align=left;verticalAlign=top;spacingLeft=4;spacingRight=4;overflow=hidden;rotatable=0;points=[[0,0.5],[1,0.5]];portConstraint=eastwest;whiteSpace=wrap;html=1;" parent="UfLgme9Dmy6jaAX3rJPS-34" vertex="1">
          <mxGeometry y="26" width="190" height="34" as="geometry" />
        </mxCell>
        <mxCell id="HZqt73X-XAgS6acavSGB-81" value="+ owner: int (index của session của user thêm vật phẩm)" style="text;strokeColor=none;fillColor=none;align=left;verticalAlign=top;spacingLeft=4;spacingRight=4;overflow=hidden;rotatable=0;points=[[0,0.5],[1,0.5]];portConstraint=eastwest;whiteSpace=wrap;html=1;" parent="UfLgme9Dmy6jaAX3rJPS-34" vertex="1">
          <mxGeometry y="60" width="190" height="40" as="geometry" />
        </mxCell>
        <mxCell id="UfLgme9Dmy6jaAX3rJPS-36" value="+ startingBid: int" style="text;strokeColor=none;fillColor=none;align=left;verticalAlign=top;spacingLeft=4;spacingRight=4;overflow=hidden;rotatable=0;points=[[0,0.5],[1,0.5]];portConstraint=eastwest;whiteSpace=wrap;html=1;" parent="UfLgme9Dmy6jaAX3rJPS-34" vertex="1">
          <mxGeometry y="100" width="190" height="26" as="geometry" />
        </mxCell>
        <mxCell id="UfLgme9Dmy6jaAX3rJPS-37" value="+ currentBid: int" style="text;strokeColor=none;fillColor=none;align=left;verticalAlign=top;spacingLeft=4;spacingRight=4;overflow=hidden;rotatable=0;points=[[0,0.5],[1,0.5]];portConstraint=eastwest;whiteSpace=wrap;html=1;" parent="UfLgme9Dmy6jaAX3rJPS-34" vertex="1">
          <mxGeometry y="126" width="190" height="26" as="geometry" />
        </mxCell>
        <mxCell id="HZqt73X-XAgS6acavSGB-51" value="+ bestCus: int (index của Session của user ra giá tối nhất đăng nhập)" style="text;strokeColor=none;fillColor=none;align=left;verticalAlign=top;spacingLeft=4;spacingRight=4;overflow=hidden;rotatable=0;points=[[0,0.5],[1,0.5]];portConstraint=eastwest;whiteSpace=wrap;html=1;" parent="UfLgme9Dmy6jaAX3rJPS-34" vertex="1">
          <mxGeometry y="152" width="190" height="48" as="geometry" />
        </mxCell>
        <mxCell id="UfLgme9Dmy6jaAX3rJPS-41" value="+ directSellPrice: int" style="text;strokeColor=none;fillColor=none;align=left;verticalAlign=top;spacingLeft=4;spacingRight=4;overflow=hidden;rotatable=0;points=[[0,0.5],[1,0.5]];portConstraint=eastwest;whiteSpace=wrap;html=1;" parent="UfLgme9Dmy6jaAX3rJPS-34" vertex="1">
          <mxGeometry y="200" width="190" height="26" as="geometry" />
        </mxCell>
        <mxCell id="HZqt73X-XAgS6acavSGB-2" value="join this room" style="html=1;verticalAlign=bottom;endArrow=block;curved=0;rounded=0;entryX=0.003;entryY=0.278;entryDx=0;entryDy=0;entryPerimeter=0;exitX=1;exitY=0.5;exitDx=0;exitDy=0;" parent="1" source="UfLgme9Dmy6jaAX3rJPS-22" target="HZqt73X-XAgS6acavSGB-22" edge="1">
          <mxGeometry width="80" relative="1" as="geometry">
            <mxPoint x="410.05" y="-530" as="sourcePoint" />
            <mxPoint x="570" y="-530" as="targetPoint" />
          </mxGeometry>
        </mxCell>
        <mxCell id="HZqt73X-XAgS6acavSGB-4" value="Join room" style="html=1;verticalAlign=bottom;endArrow=block;curved=0;rounded=0;entryX=0.5;entryY=0;entryDx=0;entryDy=0;" parent="1" target="HZqt73X-XAgS6acavSGB-21" edge="1">
          <mxGeometry width="80" relative="1" as="geometry">
            <mxPoint x="690" y="-630" as="sourcePoint" />
            <mxPoint x="655" y="-550" as="targetPoint" />
          </mxGeometry>
        </mxCell>
        <mxCell id="HZqt73X-XAgS6acavSGB-12" value="Login" style="html=1;verticalAlign=bottom;endArrow=block;curved=0;rounded=0;" parent="1" edge="1">
          <mxGeometry width="80" relative="1" as="geometry">
            <mxPoint x="40" y="-820" as="sourcePoint" />
            <mxPoint x="40" y="-760" as="targetPoint" />
          </mxGeometry>
        </mxCell>
        <mxCell id="HZqt73X-XAgS6acavSGB-13" value="Login" style="html=1;whiteSpace=wrap;" parent="1" vertex="1">
          <mxGeometry y="-760" width="110" height="50" as="geometry" />
        </mxCell>
        <mxCell id="HZqt73X-XAgS6acavSGB-15" value="Check Already Login" style="html=1;verticalAlign=bottom;endArrow=block;curved=0;rounded=0;" parent="1" edge="1">
          <mxGeometry width="80" relative="1" as="geometry">
            <mxPoint x="110" y="-740" as="sourcePoint" />
            <mxPoint x="270" y="-740" as="targetPoint" />
          </mxGeometry>
        </mxCell>
        <mxCell id="HZqt73X-XAgS6acavSGB-17" value="Login" style="swimlane;fontStyle=0;childLayout=stackLayout;horizontal=1;startSize=30;horizontalStack=0;resizeParent=1;resizeParentMax=0;resizeLast=0;collapsible=1;marginBottom=0;whiteSpace=wrap;html=1;" parent="1" vertex="1">
          <mxGeometry x="270" y="-760" width="210" height="90" as="geometry">
            <mxRectangle x="270" y="-760" width="70" height="30" as="alternateBounds" />
          </mxGeometry>
        </mxCell>
        <mxCell id="HZqt73X-XAgS6acavSGB-18" value="changeSessionLoginState" style="text;strokeColor=none;fillColor=none;align=left;verticalAlign=middle;spacingLeft=4;spacingRight=4;overflow=hidden;points=[[0,0.5],[1,0.5]];portConstraint=eastwest;rotatable=0;whiteSpace=wrap;html=1;" parent="HZqt73X-XAgS6acavSGB-17" vertex="1">
          <mxGeometry y="30" width="210" height="30" as="geometry" />
        </mxCell>
        <mxCell id="HZqt73X-XAgS6acavSGB-19" value="changeUsername" style="text;strokeColor=none;fillColor=none;align=left;verticalAlign=middle;spacingLeft=4;spacingRight=4;overflow=hidden;points=[[0,0.5],[1,0.5]];portConstraint=eastwest;rotatable=0;whiteSpace=wrap;html=1;" parent="HZqt73X-XAgS6acavSGB-17" vertex="1">
          <mxGeometry y="60" width="210" height="30" as="geometry" />
        </mxCell>
        <mxCell id="HZqt73X-XAgS6acavSGB-21" value="join room" style="swimlane;fontStyle=0;childLayout=stackLayout;horizontal=1;startSize=30;horizontalStack=0;resizeParent=1;resizeParentMax=0;resizeLast=0;collapsible=1;marginBottom=0;whiteSpace=wrap;html=1;" parent="1" vertex="1">
          <mxGeometry x="590" y="-550" width="200" height="130" as="geometry">
            <mxRectangle x="590" y="-550" width="90" height="30" as="alternateBounds" />
          </mxGeometry>
        </mxCell>
        <mxCell id="HZqt73X-XAgS6acavSGB-22" value="thay đổi inRoom state, default của inRoom là -1" style="text;strokeColor=none;fillColor=none;align=left;verticalAlign=middle;spacingLeft=4;spacingRight=4;overflow=hidden;points=[[0,0.5],[1,0.5]];portConstraint=eastwest;rotatable=0;whiteSpace=wrap;html=1;" parent="HZqt73X-XAgS6acavSGB-21" vertex="1">
          <mxGeometry y="30" width="200" height="30" as="geometry" />
        </mxCell>
        <mxCell id="HZqt73X-XAgS6acavSGB-23" value="tăng userNum của room" style="text;strokeColor=none;fillColor=none;align=left;verticalAlign=middle;spacingLeft=4;spacingRight=4;overflow=hidden;points=[[0,0.5],[1,0.5]];portConstraint=eastwest;rotatable=0;whiteSpace=wrap;html=1;" parent="HZqt73X-XAgS6acavSGB-21" vertex="1">
          <mxGeometry y="60" width="200" height="30" as="geometry" />
        </mxCell>
        <mxCell id="HZqt73X-XAgS6acavSGB-83" value="Thêm index của session vào userList" style="text;strokeColor=none;fillColor=none;align=left;verticalAlign=middle;spacingLeft=4;spacingRight=4;overflow=hidden;points=[[0,0.5],[1,0.5]];portConstraint=eastwest;rotatable=0;whiteSpace=wrap;html=1;" parent="HZqt73X-XAgS6acavSGB-21" vertex="1">
          <mxGeometry y="90" width="200" height="40" as="geometry" />
        </mxCell>
        <mxCell id="HZqt73X-XAgS6acavSGB-25" value="add new item" style="html=1;verticalAlign=bottom;endArrow=block;curved=0;rounded=0;" parent="1" edge="1">
          <mxGeometry width="80" relative="1" as="geometry">
            <mxPoint x="70" y="-400" as="sourcePoint" />
            <mxPoint x="70" y="-350" as="targetPoint" />
          </mxGeometry>
        </mxCell>
        <mxCell id="HZqt73X-XAgS6acavSGB-43" style="edgeStyle=orthogonalEdgeStyle;rounded=0;orthogonalLoop=1;jettySize=auto;html=1;entryX=0;entryY=0.5;entryDx=0;entryDy=0;" parent="1" source="HZqt73X-XAgS6acavSGB-26" target="HZqt73X-XAgS6acavSGB-42" edge="1">
          <mxGeometry relative="1" as="geometry" />
        </mxCell>
        <mxCell id="HZqt73X-XAgS6acavSGB-26" value="add New Item" style="html=1;whiteSpace=wrap;" parent="1" vertex="1">
          <mxGeometry x="40" y="-350" width="110" height="50" as="geometry" />
        </mxCell>
        <mxCell id="HZqt73X-XAgS6acavSGB-27" value="«Queue»&lt;br&gt;&lt;b&gt;ItemQueue&lt;/b&gt;" style="html=1;whiteSpace=wrap;" parent="1" vertex="1">
          <mxGeometry x="460" y="-460" width="110" height="50" as="geometry" />
        </mxCell>
        <mxCell id="HZqt73X-XAgS6acavSGB-38" value="push" style="html=1;verticalAlign=bottom;endArrow=block;curved=0;rounded=0;exitX=0.5;exitY=0;exitDx=0;exitDy=0;entryX=0.01;entryY=0.392;entryDx=0;entryDy=0;entryPerimeter=0;" parent="1" source="HZqt73X-XAgS6acavSGB-42" target="HZqt73X-XAgS6acavSGB-27" edge="1">
          <mxGeometry x="0.6911" width="80" relative="1" as="geometry">
            <mxPoint x="150.27000000000004" y="-497.1" as="sourcePoint" />
            <mxPoint x="255" y="-495" as="targetPoint" />
            <mxPoint as="offset" />
            <Array as="points">
              <mxPoint x="270" y="-440" />
            </Array>
          </mxGeometry>
        </mxCell>
        <mxCell id="HZqt73X-XAgS6acavSGB-47" style="edgeStyle=orthogonalEdgeStyle;rounded=0;orthogonalLoop=1;jettySize=auto;html=1;" parent="1" source="HZqt73X-XAgS6acavSGB-42" edge="1">
          <mxGeometry relative="1" as="geometry">
            <mxPoint x="460" y="-440" as="targetPoint" />
            <Array as="points">
              <mxPoint x="400" y="-325" />
              <mxPoint x="400" y="-440" />
            </Array>
          </mxGeometry>
        </mxCell>
        <mxCell id="HZqt73X-XAgS6acavSGB-42" value="isQueueNull" style="rhombus;whiteSpace=wrap;html=1;" parent="1" vertex="1">
          <mxGeometry x="205" y="-365" width="130" height="80" as="geometry" />
        </mxCell>
        <mxCell id="HZqt73X-XAgS6acavSGB-44" value="No" style="text;html=1;align=center;verticalAlign=middle;resizable=0;points=[];autosize=1;strokeColor=none;fillColor=none;" parent="1" vertex="1">
          <mxGeometry x="260" y="-392" width="40" height="30" as="geometry" />
        </mxCell>
        <mxCell id="HZqt73X-XAgS6acavSGB-48" value="yes" style="text;html=1;align=center;verticalAlign=middle;resizable=0;points=[];autosize=1;strokeColor=none;fillColor=none;" parent="1" vertex="1">
          <mxGeometry x="335" y="-350" width="40" height="30" as="geometry" />
        </mxCell>
        <mxCell id="HZqt73X-XAgS6acavSGB-49" value="StartBidding" style="html=1;whiteSpace=wrap;" parent="1" vertex="1">
          <mxGeometry x="600" y="-362" width="110" height="50" as="geometry" />
        </mxCell>
        <mxCell id="HZqt73X-XAgS6acavSGB-50" value="" style="html=1;verticalAlign=bottom;endArrow=block;curved=0;rounded=0;entryX=0;entryY=0.75;entryDx=0;entryDy=0;exitX=1;exitY=0.5;exitDx=0;exitDy=0;" parent="1" source="HZqt73X-XAgS6acavSGB-42" target="HZqt73X-XAgS6acavSGB-49" edge="1">
          <mxGeometry width="80" relative="1" as="geometry">
            <mxPoint x="400" y="-325.29" as="sourcePoint" />
            <mxPoint x="480" y="-325.29" as="targetPoint" />
          </mxGeometry>
        </mxCell>
        <mxCell id="HZqt73X-XAgS6acavSGB-52" value="Done" style="html=1;verticalAlign=bottom;endArrow=block;curved=0;rounded=0;entryX=0.5;entryY=1;entryDx=0;entryDy=0;exitX=1.01;exitY=0.665;exitDx=0;exitDy=0;exitPerimeter=0;" parent="1" source="HZqt73X-XAgS6acavSGB-49" target="HZqt73X-XAgS6acavSGB-42" edge="1">
          <mxGeometry x="-0.8546" y="5" width="80" relative="1" as="geometry">
            <mxPoint x="660" y="-325.29" as="sourcePoint" />
            <mxPoint x="740" y="-325.29" as="targetPoint" />
            <Array as="points">
              <mxPoint x="750" y="-329" />
              <mxPoint x="750" y="-270" />
              <mxPoint x="270" y="-270" />
            </Array>
            <mxPoint as="offset" />
          </mxGeometry>
        </mxCell>
        <mxCell id="HZqt73X-XAgS6acavSGB-54" value="StartBidding" style="html=1;whiteSpace=wrap;" parent="1" vertex="1">
          <mxGeometry x="40" y="-90" width="110" height="50" as="geometry" />
        </mxCell>
        <mxCell id="HZqt73X-XAgS6acavSGB-56" value="«Thread»&lt;br&gt;&lt;b&gt;TimeCounter&lt;/b&gt;" style="html=1;whiteSpace=wrap;" parent="1" vertex="1">
          <mxGeometry x="225" y="-90" width="110" height="50" as="geometry" />
        </mxCell>
        <mxCell id="HZqt73X-XAgS6acavSGB-57" value="BiddingAnnou" style="html=1;whiteSpace=wrap;" parent="1" vertex="1">
          <mxGeometry x="460" y="-90" width="110" height="50" as="geometry" />
        </mxCell>
        <mxCell id="HZqt73X-XAgS6acavSGB-58" value="After 3 minutes" style="html=1;verticalAlign=bottom;endArrow=block;curved=0;rounded=0;entryX=0;entryY=0.5;entryDx=0;entryDy=0;exitX=1;exitY=0.5;exitDx=0;exitDy=0;" parent="1" source="HZqt73X-XAgS6acavSGB-56" target="HZqt73X-XAgS6acavSGB-57" edge="1">
          <mxGeometry width="80" relative="1" as="geometry">
            <mxPoint x="240" y="10" as="sourcePoint" />
            <mxPoint x="320" y="10" as="targetPoint" />
          </mxGeometry>
        </mxCell>
        <mxCell id="HZqt73X-XAgS6acavSGB-61" value="Create" style="html=1;verticalAlign=bottom;endArrow=block;curved=0;rounded=0;entryX=0;entryY=0.5;entryDx=0;entryDy=0;exitX=1;exitY=0.5;exitDx=0;exitDy=0;" parent="1" source="HZqt73X-XAgS6acavSGB-54" target="HZqt73X-XAgS6acavSGB-56" edge="1">
          <mxGeometry width="80" relative="1" as="geometry">
            <mxPoint x="440" y="10" as="sourcePoint" />
            <mxPoint x="520" y="10" as="targetPoint" />
          </mxGeometry>
        </mxCell>
        <mxCell id="HZqt73X-XAgS6acavSGB-63" value="Bid" style="html=1;verticalAlign=bottom;endArrow=block;curved=0;rounded=0;" parent="1" edge="1">
          <mxGeometry width="80" relative="1" as="geometry">
            <mxPoint x="280" y="130" as="sourcePoint" />
            <mxPoint x="280" y="20" as="targetPoint" />
          </mxGeometry>
        </mxCell>
        <mxCell id="HZqt73X-XAgS6acavSGB-65" value="Reset (cancel và tạo mới)" style="html=1;verticalAlign=bottom;endArrow=block;curved=0;rounded=0;entryX=0.5;entryY=1;entryDx=0;entryDy=0;" parent="1" target="HZqt73X-XAgS6acavSGB-56" edge="1">
          <mxGeometry width="80" relative="1" as="geometry">
            <mxPoint x="280" y="20" as="sourcePoint" />
            <mxPoint x="520" y="130" as="targetPoint" />
          </mxGeometry>
        </mxCell>
        <mxCell id="HZqt73X-XAgS6acavSGB-66" value="" style="html=1;verticalAlign=bottom;endArrow=block;curved=0;rounded=0;entryX=0;entryY=0.25;entryDx=0;entryDy=0;" parent="1" target="HZqt73X-XAgS6acavSGB-67" edge="1">
          <mxGeometry width="80" relative="1" as="geometry">
            <mxPoint x="280.05" y="20" as="sourcePoint" />
            <mxPoint x="460" y="20" as="targetPoint" />
          </mxGeometry>
        </mxCell>
        <mxCell id="HZqt73X-XAgS6acavSGB-67" value="Bidding" style="swimlane;fontStyle=0;childLayout=stackLayout;horizontal=1;startSize=30;horizontalStack=0;resizeParent=1;resizeParentMax=0;resizeLast=0;collapsible=1;marginBottom=0;whiteSpace=wrap;html=1;" parent="1" vertex="1">
          <mxGeometry x="350" width="140" height="90" as="geometry">
            <mxRectangle x="350" y="-140" width="80" height="30" as="alternateBounds" />
          </mxGeometry>
        </mxCell>
        <mxCell id="HZqt73X-XAgS6acavSGB-68" value="Thay đổi currentBid" style="text;strokeColor=none;fillColor=none;align=left;verticalAlign=middle;spacingLeft=4;spacingRight=4;overflow=hidden;points=[[0,0.5],[1,0.5]];portConstraint=eastwest;rotatable=0;whiteSpace=wrap;html=1;" parent="HZqt73X-XAgS6acavSGB-67" vertex="1">
          <mxGeometry y="30" width="140" height="30" as="geometry" />
        </mxCell>
        <mxCell id="HZqt73X-XAgS6acavSGB-69" value="Thay đổi bestBid" style="text;strokeColor=none;fillColor=none;align=left;verticalAlign=middle;spacingLeft=4;spacingRight=4;overflow=hidden;points=[[0,0.5],[1,0.5]];portConstraint=eastwest;rotatable=0;whiteSpace=wrap;html=1;" parent="HZqt73X-XAgS6acavSGB-67" vertex="1">
          <mxGeometry y="60" width="140" height="30" as="geometry" />
        </mxCell>
        <mxCell id="HZqt73X-XAgS6acavSGB-72" value="after 3 times&lt;br&gt;eachtime 30s" style="html=1;verticalAlign=bottom;endArrow=block;curved=0;rounded=0;" parent="1" target="HZqt73X-XAgS6acavSGB-73" edge="1">
          <mxGeometry width="80" relative="1" as="geometry">
            <mxPoint x="570" y="-65.59" as="sourcePoint" />
            <mxPoint x="740" y="-66" as="targetPoint" />
            <mxPoint as="offset" />
          </mxGeometry>
        </mxCell>
        <mxCell id="HZqt73X-XAgS6acavSGB-73" value="Done&lt;br&gt;Send message to all joiner" style="html=1;whiteSpace=wrap;" parent="1" vertex="1">
          <mxGeometry x="650" y="-90" width="110" height="50" as="geometry" />
        </mxCell>
        <mxCell id="HZqt73X-XAgS6acavSGB-74" value="Buy Now" style="html=1;verticalAlign=bottom;endArrow=block;curved=0;rounded=0;" parent="1" edge="1">
          <mxGeometry width="80" relative="1" as="geometry">
            <mxPoint x="280" y="-240" as="sourcePoint" />
            <mxPoint x="280" y="-180" as="targetPoint" />
          </mxGeometry>
        </mxCell>
        <mxCell id="HZqt73X-XAgS6acavSGB-75" value="Cancel" style="html=1;verticalAlign=bottom;endArrow=block;curved=0;rounded=0;entryX=0.5;entryY=0;entryDx=0;entryDy=0;" parent="1" target="HZqt73X-XAgS6acavSGB-56" edge="1">
          <mxGeometry width="80" relative="1" as="geometry">
            <mxPoint x="280.05" y="-180" as="sourcePoint" />
            <mxPoint x="360.05" y="-180" as="targetPoint" />
          </mxGeometry>
        </mxCell>
        <mxCell id="HZqt73X-XAgS6acavSGB-76" value="" style="html=1;verticalAlign=bottom;endArrow=block;curved=0;rounded=0;entryX=0.5;entryY=0;entryDx=0;entryDy=0;" parent="1" target="HZqt73X-XAgS6acavSGB-73" edge="1">
          <mxGeometry width="80" relative="1" as="geometry">
            <mxPoint x="280" y="-180" as="sourcePoint" />
            <mxPoint x="770" y="-90" as="targetPoint" />
            <Array as="points">
              <mxPoint x="705" y="-180" />
            </Array>
          </mxGeometry>
        </mxCell>
        <mxCell id="HZqt73X-XAgS6acavSGB-77" value="Delete Item" style="html=1;verticalAlign=bottom;endArrow=block;curved=0;rounded=0;" parent="1" target="HZqt73X-XAgS6acavSGB-79" edge="1">
          <mxGeometry width="80" relative="1" as="geometry">
            <mxPoint x="40" y="200" as="sourcePoint" />
            <mxPoint x="120" y="200" as="targetPoint" />
          </mxGeometry>
        </mxCell>
        <mxCell id="HZqt73X-XAgS6acavSGB-79" value="DeleteItem" style="html=1;whiteSpace=wrap;" parent="1" vertex="1">
          <mxGeometry x="116" y="180" width="110" height="50" as="geometry" />
        </mxCell>
        <mxCell id="Jd-QR08-7f3cu7Jl3zp6-2" value="Nhận tin" style="swimlane;fontStyle=0;childLayout=stackLayout;horizontal=1;startSize=26;fillColor=none;horizontalStack=0;resizeParent=1;resizeParentMax=0;resizeLast=0;collapsible=1;marginBottom=0;whiteSpace=wrap;html=1;" parent="1" vertex="1">
          <mxGeometry x="65" y="320" width="140" height="78" as="geometry" />
        </mxCell>
        <mxCell id="Jd-QR08-7f3cu7Jl3zp6-3" value="Nhận gói tin" style="text;strokeColor=none;fillColor=none;align=left;verticalAlign=top;spacingLeft=4;spacingRight=4;overflow=hidden;rotatable=0;points=[[0,0.5],[1,0.5]];portConstraint=eastwest;whiteSpace=wrap;html=1;" parent="Jd-QR08-7f3cu7Jl3zp6-2" vertex="1">
          <mxGeometry y="26" width="140" height="26" as="geometry" />
        </mxCell>
        <mxCell id="Jd-QR08-7f3cu7Jl3zp6-4" value="Định danh người gửi" style="text;strokeColor=none;fillColor=none;align=left;verticalAlign=top;spacingLeft=4;spacingRight=4;overflow=hidden;rotatable=0;points=[[0,0.5],[1,0.5]];portConstraint=eastwest;whiteSpace=wrap;html=1;" parent="Jd-QR08-7f3cu7Jl3zp6-2" vertex="1">
          <mxGeometry y="52" width="140" height="26" as="geometry" />
        </mxCell>
        <mxCell id="Jd-QR08-7f3cu7Jl3zp6-6" value="Xử lý gói tin" style="swimlane;fontStyle=0;childLayout=stackLayout;horizontal=1;startSize=26;fillColor=none;horizontalStack=0;resizeParent=1;resizeParentMax=0;resizeLast=0;collapsible=1;marginBottom=0;whiteSpace=wrap;html=1;" parent="1" vertex="1">
          <mxGeometry x="285" y="320" width="140" height="78" as="geometry">
            <mxRectangle x="310" y="294" width="100" height="30" as="alternateBounds" />
          </mxGeometry>
        </mxCell>
        <mxCell id="Jd-QR08-7f3cu7Jl3zp6-7" value="Xử lý truyền dòng" style="text;strokeColor=none;fillColor=none;align=left;verticalAlign=top;spacingLeft=4;spacingRight=4;overflow=hidden;rotatable=0;points=[[0,0.5],[1,0.5]];portConstraint=eastwest;whiteSpace=wrap;html=1;" parent="Jd-QR08-7f3cu7Jl3zp6-6" vertex="1">
          <mxGeometry y="26" width="140" height="26" as="geometry" />
        </mxCell>
        <mxCell id="Jd-QR08-7f3cu7Jl3zp6-8" value="Xuất ra yêu cầu" style="text;strokeColor=none;fillColor=none;align=left;verticalAlign=top;spacingLeft=4;spacingRight=4;overflow=hidden;rotatable=0;points=[[0,0.5],[1,0.5]];portConstraint=eastwest;whiteSpace=wrap;html=1;" parent="Jd-QR08-7f3cu7Jl3zp6-6" vertex="1">
          <mxGeometry y="52" width="140" height="26" as="geometry" />
        </mxCell>
        <mxCell id="Jd-QR08-7f3cu7Jl3zp6-10" value="Gói tin" style="html=1;verticalAlign=bottom;endArrow=block;curved=0;rounded=0;exitX=1;exitY=0.5;exitDx=0;exitDy=0;entryX=0;entryY=0.5;entryDx=0;entryDy=0;" parent="1" source="Jd-QR08-7f3cu7Jl3zp6-3" target="Jd-QR08-7f3cu7Jl3zp6-7" edge="1">
          <mxGeometry width="80" relative="1" as="geometry">
            <mxPoint x="330" y="260" as="sourcePoint" />
            <mxPoint x="410" y="260" as="targetPoint" />
          </mxGeometry>
        </mxCell>
        <mxCell id="Jd-QR08-7f3cu7Jl3zp6-11" value="Yêu cầu" style="html=1;verticalAlign=bottom;endArrow=block;curved=0;rounded=0;exitX=1;exitY=0.5;exitDx=0;exitDy=0;" parent="1" source="Jd-QR08-7f3cu7Jl3zp6-7" target="Jd-QR08-7f3cu7Jl3zp6-12" edge="1">
          <mxGeometry width="80" relative="1" as="geometry">
            <mxPoint x="330" y="260" as="sourcePoint" />
            <mxPoint x="410" y="260" as="targetPoint" />
          </mxGeometry>
        </mxCell>
        <mxCell id="Jd-QR08-7f3cu7Jl3zp6-12" value="Xử lý yêu cầu" style="swimlane;fontStyle=0;childLayout=stackLayout;horizontal=1;startSize=26;fillColor=none;horizontalStack=0;resizeParent=1;resizeParentMax=0;resizeLast=0;collapsible=1;marginBottom=0;whiteSpace=wrap;html=1;" parent="1" vertex="1">
          <mxGeometry x="490" y="320" width="140" height="78" as="geometry" />
        </mxCell>
        <mxCell id="Jd-QR08-7f3cu7Jl3zp6-13" value="Phân tích cú pháp" style="text;strokeColor=none;fillColor=none;align=left;verticalAlign=top;spacingLeft=4;spacingRight=4;overflow=hidden;rotatable=0;points=[[0,0.5],[1,0.5]];portConstraint=eastwest;whiteSpace=wrap;html=1;" parent="Jd-QR08-7f3cu7Jl3zp6-12" vertex="1">
          <mxGeometry y="26" width="140" height="26" as="geometry" />
        </mxCell>
        <mxCell id="Jd-QR08-7f3cu7Jl3zp6-14" value="Lấy lệnh, tham số" style="text;strokeColor=none;fillColor=none;align=left;verticalAlign=top;spacingLeft=4;spacingRight=4;overflow=hidden;rotatable=0;points=[[0,0.5],[1,0.5]];portConstraint=eastwest;whiteSpace=wrap;html=1;" parent="Jd-QR08-7f3cu7Jl3zp6-12" vertex="1">
          <mxGeometry y="52" width="140" height="26" as="geometry" />
        </mxCell>
        <mxCell id="Jd-QR08-7f3cu7Jl3zp6-17" value="Gửi phản hồi" style="swimlane;fontStyle=0;childLayout=stackLayout;horizontal=1;startSize=26;fillColor=none;horizontalStack=0;resizeParent=1;resizeParentMax=0;resizeLast=0;collapsible=1;marginBottom=0;whiteSpace=wrap;html=1;" parent="1" vertex="1">
          <mxGeometry x="710" y="318" width="140" height="80" as="geometry" />
        </mxCell>
        <mxCell id="Jd-QR08-7f3cu7Jl3zp6-18" value="Gửi response code đến client" style="text;strokeColor=none;fillColor=none;align=left;verticalAlign=top;spacingLeft=4;spacingRight=4;overflow=hidden;rotatable=0;points=[[0,0.5],[1,0.5]];portConstraint=eastwest;whiteSpace=wrap;html=1;" parent="Jd-QR08-7f3cu7Jl3zp6-17" vertex="1">
          <mxGeometry y="26" width="140" height="54" as="geometry" />
        </mxCell>
        <mxCell id="Jd-QR08-7f3cu7Jl3zp6-21" value="Kết quả" style="html=1;verticalAlign=bottom;endArrow=block;curved=0;rounded=0;exitX=1;exitY=0.5;exitDx=0;exitDy=0;entryX=0.01;entryY=0.278;entryDx=0;entryDy=0;entryPerimeter=0;" parent="1" source="Jd-QR08-7f3cu7Jl3zp6-13" target="Jd-QR08-7f3cu7Jl3zp6-18" edge="1">
          <mxGeometry width="80" relative="1" as="geometry">
            <mxPoint x="435" y="369" as="sourcePoint" />
            <mxPoint x="500" y="369" as="targetPoint" />
          </mxGeometry>
        </mxCell>
        <mxCell id="Jd-QR08-7f3cu7Jl3zp6-24" value="Pop" style="html=1;verticalAlign=bottom;endArrow=block;curved=0;rounded=0;entryX=0.52;entryY=-0.032;entryDx=0;entryDy=0;entryPerimeter=0;" parent="1" edge="1">
          <mxGeometry x="-0.7145" y="-1" width="80" relative="1" as="geometry">
            <mxPoint x="520" y="-270" as="sourcePoint" />
            <mxPoint x="519.8" y="-411.5999999999999" as="targetPoint" />
            <mxPoint as="offset" />
          </mxGeometry>
        </mxCell>
        <mxCell id="EqpUa5zrXrZzU2MoyzAz-3" value="Dùng Mutex &lt;br&gt;điều độ" style="text;html=1;align=center;verticalAlign=middle;resizable=0;points=[];autosize=1;strokeColor=none;fillColor=none;" parent="1" vertex="1">
          <mxGeometry x="415" y="-405" width="90" height="40" as="geometry" />
        </mxCell>
      </root>
    </mxGraphModel>
  </diagram>
</mxfile>
